<?xml version="1.0" encoding="iso-8859-1"?>
<!-- Generator: Adobe Illustrator 19.0.0, SVG Export Plug-In . SVG Version: 6.00 Build 0)  -->
<svg version="1.1" id="Capa_1" xmlns="http://www.w3.org/2000/svg" xmlns:xlink="http://www.w3.org/1999/xlink" x="0px" y="0px"
	 viewBox="0 0 512 512" style="enable-background:new 0 0 512 512;" xml:space="preserve">
<g>
	<g>
		<path d="M461.143,60.883l-200.83-60.25c-2.812-0.844-5.809-0.844-8.622,0L50.857,60.883c-6.344,1.903-10.689,7.743-10.689,14.367
			v220.916c0,28.734,11.633,58.148,34.574,87.425c17.521,22.36,41.762,44.813,72.047,66.736
			c50.877,36.828,100.976,59.42,103.084,60.363c1.949,0.873,4.039,1.31,6.129,1.31s4.18-0.436,6.129-1.31
			c2.107-0.943,52.205-23.535,103.082-60.363c30.285-21.923,54.525-44.376,72.047-66.736c22.941-29.276,34.572-58.69,34.572-87.425
			V75.25C471.832,68.626,467.489,62.786,461.143,60.883z"/>
	</g>
</g>
<g>
</g>
<g>
</g>
<g>
</g>
<g>
</g>
<g>
</g>
<g>
</g>
<g>
</g>
<g>
</g>
<g>
</g>
<g>
</g>
<g>
</g>
<g>
</g>
<g>
</g>
<g>
</g>
<g>
</g>
</svg>
